<?xml version="1.0" standalone="no"?>
<!DOCTYPE svg PUBLIC "-//W3C//DTD SVG 20010904//EN"
 "http://www.w3.org/TR/2001/REC-SVG-20010904/DTD/svg10.dtd">
<svg version="1.0" xmlns="http://www.w3.org/2000/svg"
 width="512.000000pt" height="512.000000pt" viewBox="0 0 512.000000 512.000000"
 preserveAspectRatio="xMidYMid meet">
<metadata>
Created by potrace 1.14, written by Peter Selinger 2001-2017
</metadata>
<g transform="translate(0.000000,512.000000) scale(0.100000,-0.100000)"
fill="#000000" stroke="none">
<path d="M125 5106 c-35 -16 -66 -49 -83 -89 -9 -21 -12 -603 -12 -2430 0
-2109 2 -2405 15 -2431 8 -15 12 -33 8 -39 -3 -5 -2 -7 4 -4 5 3 20 -4 34 -16
14 -12 31 -24 39 -27 8 -3 1104 -5 2436 -5 l2421 0 35 27 c74 56 67 -179 68
2496 0 2654 6 2444 -66 2498 l-37 29 -2416 2 c-1998 2 -2421 0 -2446 -11z"/>
</g>
</svg>
